# xmcd
#
# Track frame offsets: 
#        150
#        8390
#        19271
#        35589
#        44151
#        54233
#        55376
#        65112
#        80966
#        95299
#        101435
#        103460
#        114843
#        126921
#        137323
#        148335
#        157273
#        165901
#        168097
#        179015
#        189516
#        203119
#        205278
#        211278
#        218897
#        229577
#
# Disc length: 3325 seconds
#
# Revision: 0
# Processed by: cddbd v1.5.2PL0 Copyright (c) Steve Scherf et al.
# Submitted via: ExactAudioCopy v1.3
#
DISCID=7c0cfb1a
DTITLE=Various Artist - Comptines et berceuses d'Amérique latine
DYEAR=2017
DGENRE=Children
TTITLE0=Escuela {La} [Équateur]
TTITLE1=Cuento del morrocoy {El} [Venezuela]
TTITLE2=Tripón {Mi} [Venezuela]
TTITLE3=Vicuñita {La} [Pérou]
TTITLE4=Mar estaba serena {La} [Pérou]
TTITLE5=Aserrín, aserrán [Argentine and Mexique]
TTITLE6=Zapatitos [Pérou]
TTITLE7=Llorona {La} [Mexique]
TTITLE8=Canción del jangadero [Argentine]
TTITLE9=Chimichimitos {Los} [Venezuela]
TTITLE10=Manos arriba [Argentine]
TTITLE11=En brazos de una doncella [Équateur]
TTITLE12=Antiguos dueños de las flechas {Los} [Argentine]
TTITLE13=Burrita {La} [Mexique]
TTITLE14=Con real y medio [Venezuela]
TTITLE15=Arrullo san Antonio [Colombie]
TTITLE16=Duerme negrito [Colombie and Venezuela]
TTITLE17=Saco una manito [Argentine]
TTITLE18=Vidalas [Argentine]
TTITLE19=Plantita de alelí [Argentine and Pérou]
TTITLE20=Pulga y el piojo {La} [Venezuela]
TTITLE21=¡Qué llueva! [Argentine]
TTITLE22=Oración ratona [Venezuela]
TTITLE23=Canción de cuna [Urugay]
TTITLE24=Pobre corazón [Équateur]
TTITLE25=Malabrigo [Pérou]
EXTD=
EXTT0=
EXTT1=
EXTT2=
EXTT3=
EXTT4=
EXTT5=
EXTT6=
EXTT7=
EXTT8=
EXTT9=
EXTT10=
EXTT11=
EXTT12=
EXTT13=
EXTT14=
EXTT15=
EXTT16=
EXTT17=
EXTT18=
EXTT19=
EXTT20=
EXTT21=
EXTT22=
EXTT23=
EXTT24=
EXTT25=
PLAYORDER=
